<?xml version="1.0" encoding="utf-8"?>
<!-- Generator: Adobe Illustrator 16.0.0, SVG Export Plug-In . SVG Version: 6.00 Build 0)  -->
<!DOCTYPE svg PUBLIC "-//W3C//DTD SVG 1.1//EN" "http://www.w3.org/Graphics/SVG/1.1/DTD/svg11.dtd">
<svg version="1.1" id="Layer_1" xmlns="http://www.w3.org/2000/svg" xmlns:xlink="http://www.w3.org/1999/xlink" x="0px" y="0px"
	 width="16px" height="16px" viewBox="0 0 16 16" enable-background="new 0 0 16 16" xml:space="preserve">
<linearGradient id="SVGID_1_" gradientUnits="userSpaceOnUse" x1="8.0005" y1="1.8364" x2="8.0005" y2="11.718">
	<stop  offset="0" style="stop-color:#06EEFF"/>
	<stop  offset="1" style="stop-color:#9C60FF"/>
</linearGradient>
<path fill="url(#SVGID_1_)" d="M15.679,0.082c-0.231-0.113-0.512-0.022-0.627,0.21L8,14.45L0.949,0.292
	C0.834,0.06,0.553-0.033,0.323,0.082C0.092,0.198-0.002,0.479,0.114,0.711l7.468,14.998c0.006,0.011,0.018,0.016,0.023,0.025
	c0.033,0.054,0.074,0.1,0.128,0.139c0.015,0.01,0.024,0.022,0.04,0.03c0.007,0.004,0.011,0.012,0.018,0.015
	c0.067,0.034,0.139,0.05,0.209,0.05l0,0h0.001c0.07,0,0.142-0.016,0.208-0.05c0.008-0.003,0.012-0.011,0.019-0.015
	c0.015-0.008,0.026-0.021,0.04-0.03c0.053-0.039,0.096-0.085,0.127-0.139c0.006-0.01,0.019-0.015,0.023-0.025l7.47-14.998
	C16.002,0.479,15.909,0.198,15.679,0.082z"/>
</svg>
