<svg version="1.1" id="Layer_1" xmlns="http://www.w3.org/2000/svg" xmlns:xlink="http://www.w3.org/1999/xlink" x="0px" y="0px"
	 width="16px" height="16px" viewBox="0 0 16 16" enable-background="new 0 0 16 16" xml:space="preserve">
<linearGradient id="SVGID_1_" gradientUnits="userSpaceOnUse" x1="7.9946" y1="1.8428" x2="7.9946" y2="11.7443">
	<stop  offset="0" style="stop-color:#06EEFF"/>
	<stop  offset="1" style="stop-color:#9C60FF"/>
</linearGradient>
<path fill="url(#SVGID_1_)" d="M7.996,16.003c-0.208,0-0.406-0.047-0.589-0.141L7.27,15.793l-0.083-0.082
	c-0.08-0.064-0.146-0.132-0.205-0.202L6.93,15.464l-0.089-0.155L0.176,1.927c-0.322-0.644-0.061-1.43,0.584-1.753
	c0.181-0.09,0.383-0.138,0.584-0.138c0.5,0,0.948,0.278,1.17,0.727l5.48,11.002L13.477,0.76c0.222-0.446,0.67-0.723,1.171-0.723
	c0.197,0,0.396,0.046,0.576,0.134c0.648,0.325,0.911,1.11,0.593,1.753L9.08,15.446l-0.068,0.06
	c-0.065,0.081-0.143,0.157-0.231,0.225l-0.095,0.096l-0.147,0.059C8.369,15.963,8.183,16.003,7.996,16.003z"/>
</svg>
